<?xml version="1.0" encoding="UTF-8" standalone="no"?>
<!-- Created with Inkscape (http://www.inkscape.org/) -->

<svg
   xmlns:dc="http://purl.org/dc/elements/1.1/"
   xmlns:cc="http://creativecommons.org/ns#"
   xmlns:rdf="http://www.w3.org/1999/02/22-rdf-syntax-ns#"
   xmlns:svg="http://www.w3.org/2000/svg"
   xmlns="http://www.w3.org/2000/svg"
   xmlns:sodipodi="http://sodipodi.sourceforge.net/DTD/sodipodi-0.dtd"
   xmlns:inkscape="http://www.inkscape.org/namespaces/inkscape"
   width="10"
   height="10"
   viewBox="0 0 2.6458334 2.6458334"
   version="1.1"
   id="svg8"
   inkscape:version="0.92.4 (unknown)"
   sodipodi:docname="traingle.svg">
  <defs
     id="defs2" />
  <sodipodi:namedview
     id="base"
     pagecolor="#ffffff"
     bordercolor="#666666"
     borderopacity="1.0"
     inkscape:pageopacity="0.0"
     inkscape:pageshadow="2"
     inkscape:zoom="31.678384"
     inkscape:cx="4.5586464"
     inkscape:cy="7.0675907"
     inkscape:document-units="mm"
     inkscape:current-layer="layer1"
     showgrid="false"
     inkscape:window-width="1680"
     inkscape:window-height="1013"
     inkscape:window-x="1920"
     inkscape:window-y="0"
     inkscape:window-maximized="1"
     units="px" />
  <metadata
     id="metadata5">
    <rdf:RDF>
      <cc:Work
         rdf:about="">
        <dc:format>image/svg+xml</dc:format>
        <dc:type
           rdf:resource="http://purl.org/dc/dcmitype/StillImage" />
        <dc:title></dc:title>
      </cc:Work>
    </rdf:RDF>
  </metadata>
  <g
     inkscape:label="Layer 1"
     inkscape:groupmode="layer"
     id="layer1"
     transform="translate(0,-294.35417)">
    <path
       style="opacity:0.13300003;fill:none;fill-opacity:1;stroke-width:0.71428573"
       d="m 318.39145,325.88999 c 0,-0.31429 0.28777,-0.87679 0.63949,-1.25 0.56603,-0.60061 15.57173,-26.64985 35.67405,-61.92857 3.74958,-6.58036 7.01539,-11.96429 7.25734,-11.96429 0.24196,0 2.63401,3.77679 5.31566,8.39286 2.68166,4.61607 6.65694,11.44643 8.83397,15.17857 6.53361,11.20075 15.15548,26.05983 22.58805,38.92857 3.85732,6.67857 7.15272,12.38393 7.32311,12.67857 0.17038,0.29465 -19.47704,0.53572 -43.66094,0.53572 -24.1839,0 -43.97073,-0.25714 -43.97073,-0.57143 z"
       id="path3719"
       inkscape:connector-curvature="0"
       transform="scale(0.26458333)" />
    <path
       style="opacity:1;vector-effect:none;fill:#0077ff;fill-opacity:1;stroke-width:0.01655651;stroke-linecap:butt;stroke-linejoin:miter;stroke-miterlimit:4;stroke-dasharray:none;stroke-dashoffset:0;stroke-opacity:1"
       d="m 0.02073364,296.98681 c 0,-0.0453 1.20143436,-2.48954 1.27372066,-2.59124 0.057303,-0.0806 0.07423,-0.0527 0.5662509,0.93043 0.061873,0.12362 0.2284425,0.45514 0.3701535,0.73678 0.3114801,0.61896 0.4357083,0.88131 0.4357083,0.92003 0,0.02 -0.3306032,0.03 -1.322916,0.03 -0.87194799,-10e-4 -1.32291736,-0.01 -1.32291736,-0.0267 z"
       id="path4530"
       inkscape:connector-curvature="0" />
  </g>
</svg>
